<svg width="20" height="24" viewBox="0 0 20 24" fill="none" xmlns="http://www.w3.org/2000/svg">
<path d="M9.99785 0C10.4669 8.44121e-05 10.9264 0.133518 11.3239 0.385052C11.7214 0.636586 12.0409 0.996073 12.2458 1.42243C12.4507 1.84878 12.5329 2.32481 12.4828 2.7961C12.4327 3.26739 12.2524 3.71493 11.9626 4.08758L12.9537 6.59242L15.0809 4.44253C14.9826 4.06821 14.9706 3.67607 15.0459 3.29632C15.1211 2.91658 15.2816 2.55937 15.515 2.25221C15.7484 1.94505 16.0485 1.69614 16.3921 1.52467C16.7357 1.35319 17.1137 1.26372 17.4969 1.26316C18.0863 1.26233 18.6571 1.47205 19.1083 1.85527C19.5596 2.2385 19.8624 2.77058 19.9632 3.35753C20.064 3.94448 19.9563 4.54855 19.6591 5.06303C19.362 5.57752 18.8945 5.96933 18.3392 6.16926L16.227 17.9103C16.1792 18.176 16.0485 18.4192 15.8539 18.6042C15.6593 18.7893 15.4112 18.9064 15.1459 18.9385L14.9972 18.9474H4.99852C4.73133 18.9475 4.47114 18.8611 4.2561 18.7008C4.04106 18.5406 3.8825 18.3149 3.80368 18.0568L3.76868 17.9103L1.65647 6.16926C1.19939 6.00374 0.799913 5.70726 0.50682 5.31604C0.213727 4.92483 0.0397099 4.45582 0.00602441 3.96629C-0.0276611 3.47677 0.0804431 2.98792 0.317133 2.55947C0.553823 2.13102 0.908852 1.78151 1.33885 1.55363C1.76885 1.32576 2.25521 1.22937 2.73852 1.27626C3.22183 1.32315 3.68117 1.51128 4.06042 1.81767C4.43968 2.12406 4.72244 2.53545 4.87416 3.00158C5.02588 3.46772 5.03999 3.96842 4.91478 4.44253L7.04075 6.59242L8.03312 4.08758C7.74327 3.71493 7.56301 3.26739 7.51293 2.7961C7.46284 2.32481 7.54496 1.84878 7.74989 1.42243C7.95482 0.996073 8.2743 0.636586 8.67182 0.385052C9.06934 0.133518 9.52885 8.44121e-05 9.99785 0ZM17.4969 20.2105H2.49885C2.16738 20.2105 1.84948 20.3436 1.61509 20.5805C1.3807 20.8174 1.24902 21.1387 1.24902 21.4737C1.24902 22.1437 1.51238 22.7863 1.98116 23.2601C2.44993 23.7338 3.08573 24 3.74869 24H16.247C16.8599 24.0002 17.4514 23.7728 17.9093 23.361C18.3671 22.9493 18.6593 22.3819 18.7304 21.7667L18.7442 21.5469C18.7541 21.3752 18.7291 21.2033 18.6709 21.0416C18.6127 20.88 18.5224 20.7321 18.4056 20.6069C18.2888 20.4818 18.148 20.3821 17.9917 20.3139C17.8355 20.2458 17.6671 20.2106 17.4969 20.2105Z" fill="white"/>
</svg>
